PathFileType	4	(X/Y/Z)	Patient4_TMGait_0pt3_02_left_06.trc.trc
DataRate	CameraRate	NumFrames	NumMarkers	Units	OrigDataRate	OrigDataStartFrame	OrigNumFrames
47.138047138047	47.138047138047	4	33	mm	47.138047138047	124	       141
Frame#	Time	Sacral			L.Shoulder			Chest			R.Shoulder			Neck			R.ASIS			L.ASIS			R.Thigh.Superior			R.Thigh.Lateral			R.Thigh.Inferior			R.Patella			L.Thigh.Superior			L.Thigh.Lateral			L.Thigh.Inferior			L.Patella			L.Shank.Superior			L.Shank.Lateral			L.Shank.Inferior			R.Shank.Superior			R.Shank.Lateral			R.Shank.Inferior			R.Heel			R.Midfoot.Superior			R.Midfoot.Lateral			R.Toe			L.Heel			L.Midfoot.Lateral			L.Midfoot.Superior			L.Toe			L.Elbow			L.Wrist			R.Elbow			R.Wrist			
		X1	Y1	Z1	X2	Y2	Z2	X3	Y3	Z3	X4	Y4	Z4	X5	Y5	Z5	X6	Y6	Z6	X7	Y7	Z7	X8	Y8	Z8	X9	Y9	Z9	X10	Y10	Z10	X11	Y11	Z11	X12	Y12	Z12	X13	Y13	Z13	X14	Y14	Z14	X15	Y15	Z15	X16	Y16	Z16	X17	Y17	Z17	X18	Y18	Z18	X19	Y19	Z19	X20	Y20	Z20	X21	Y21	Z21	X22	Y22	Z22	X23	Y23	Z23	X24	Y24	Z24	X25	Y25	Z25	X26	Y26	Z26	X27	Y27	Z27	X28	Y28	Z28	X29	Y29	Z29	X30	Y30	Z30	X31	Y31	Z31	X32	Y32	Z32	X33	Y33	Z33	

124	13.959357142857	674.999251743405	1003.912266971059	610.902710897111	826.917120878366	1422.017248299752	390.306118665931	959.596379407751	1351.528257978150	527.341880911874	919.086884614035	1435.588544958293	710.259655501756	847.754327006828	1486.332459903577	544.302528415936	915.855444501267	929.025466038600	687.733040386078	860.688656508482	954.788577721727	419.128991767582	919.885388804551	720.114761323197	650.509461684672	827.794911100348	616.949154700200	713.320549058379	886.942490945365	559.939426718593	625.032128025047	872.164021549184	470.637355882136	628.616633047481	933.576819270346	761.044562240241	439.735611562266	866.762780648932	637.255307470863	369.019414942920	969.019874851581	573.457581477683	425.414707478663	990.159156488615	510.781437353357	423.166527176221	974.520724973607	440.029725159786	409.877543674550	908.838040227157	312.113020448063	353.567746103959	995.821235197904	210.968060605742	405.572550395931	827.056726447484	386.993605615046	633.154645133085	739.742014159579	293.519404795719	691.192392150347	763.338798933846	196.975099213991	622.716565605647	607.943673764596	43.919590978281	580.739048063446	776.279116447744	94.127417507555	627.127030378634	685.122223841568	36.657804994471	661.120387174073	893.603221941072	40.718166222871	667.305733573001	906.632362694928	37.047390637818	435.330212444021	983.390838627290	40.777667589276	357.662845541881	1058.479922108121	111.847014637533	384.613732198129	1190.460946266112	74.933685235139	360.858076600190	656.376289883665	1112.147041207031	317.076736497874	610.015570584171	857.505456530408	364.124158981627	1115.301505691855	1172.625445461340	828.349668823325	1350.483015196564	1245.836451818532	757.200068695908	
125	13.980571428571	675.906532628058	1003.504628549982	608.103855469972	827.336801159424	1420.489110277324	385.526105724571	960.602306431138	1350.289621501683	522.263111704148	920.747268153101	1435.064642401447	704.931183608225	848.626887964539	1485.368110441379	539.196470476463	916.905297714317	928.152170143758	684.437266602230	860.856779745297	953.478815843678	416.036976659897	919.501915596443	718.932652290719	648.018208874262	826.405103604646	616.584019999269	711.228456789865	884.877285263656	558.776740080004	623.243118491939	869.027048794954	469.603547340057	627.052661256332	933.000426607391	758.793073239101	436.465629243176	863.928362296384	635.080565877860	367.469395288915	966.350491349498	571.301970079896	423.279138466430	986.307185522136	508.492318455716	421.848141551807	971.197972474784	437.674813471439	408.769793139482	905.287662678473	309.701160331080	353.216103954229	991.927766149958	208.693576119363	405.782212003691	823.383745411905	386.360974881523	631.942609109900	735.330808930184	293.817442460926	690.538684159967	758.053966062518	196.832508034099	622.392401261847	601.650583449233	44.278183943337	580.871200705374	770.065800664286	94.135296899157	627.130649576699	678.869448310523	36.769764641647	661.190970426130	887.341099698200	40.485980222669	667.364151148031	901.289467688241	36.660212107727	436.062754601422	978.203637823587	39.292748124840	358.458252209761	1054.500773291181	108.676422749007	385.833661964826	1185.872361561363	69.357650360065	362.288893798736	658.468602264166	1109.107862368179	315.066755518244	612.700566002379	854.541704326550	364.093891537634	1121.224355795213	1176.299681122227	821.876875748408	1352.644805834390	1258.242312320583	748.321925111594	
126	14.001785714286	676.949566341072	1003.228576350876	604.963151089217	828.081664488586	1419.106244330025	380.565810627233	961.855909387131	1349.128827215226	517.049481897637	922.590357707662	1434.551329587687	699.497848106930	849.734559501920	1484.505725488901	533.927145513760	918.074935452067	927.353896471765	680.820013205712	861.218725146203	952.382643214993	412.620354218434	919.327070054654	717.838450764179	645.275354764542	825.279635107295	616.298769632836	708.897089963711	883.143669983676	557.698671365464	621.230243449344	866.301600165783	468.608908309629	625.319620358148	932.996492400897	757.197777017797	433.276137718779	862.419140220397	633.450728697038	365.691532789264	964.920114158660	569.804846906059	421.189131639108	983.697548150188	506.593677050646	420.483968619758	968.903339907874	435.594683246868	407.608185441514	902.371996837936	307.846188167281	352.562707636187	988.007056194751	206.566605185590	405.871279088806	820.011011572086	385.803290913115	630.600316405954	731.125254823696	294.302350556097	689.816252939519	752.926427029697	196.821350987451	622.062139170958	595.398756547900	44.862645879783	581.063985415320	763.963752975531	94.219840487530	627.211001605799	672.668358514263	36.989168909613	661.296266787464	881.126802898733	40.205810659942	667.441149576720	895.200582973522	36.551443022505	436.613627695036	972.240817783744	38.019845765387	359.041687163573	1049.864731971627	105.623451589329	386.851756119105	1180.580278015668	63.740387552651	363.444863619081	661.450994088048	1105.856455876566	312.472620121572	616.688915169483	851.303768495355	363.053991066830	1126.404883956192	1179.248063999350	815.457626720899	1354.420908837226	1268.334388875403	739.787992719671	
127	14.023000000000	678.119375942588	1003.171251164897	601.440577288847	829.106860684246	1417.993312274340	375.471868225792	963.326158671385	1348.150311826111	511.720641524503	924.609790877415	1434.135012591365	693.992193356383	851.053023411808	1483.836135484131	528.550756580175	919.329208476495	926.703279773465	676.866341540699	861.792309022186	951.598544524455	408.845862058076	919.220420591506	716.889876110028	642.276414710377	824.256477773798	616.183970255677	706.345114043720	881.568747101907	556.774817217638	619.017811867971	863.812758661093	467.742400904470	623.452633370753	933.592596801308	756.358236198238	430.174210399423	862.277562578722	632.440878852998	363.646634854159	964.735217041297	568.995387524297	419.125732651598	982.365125182143	505.148139963322	419.073495961487	967.666196590906	433.872384089689	406.405543808742	900.224746385139	306.596778392210	351.581099498908	984.209494606967	204.689692228779	405.851993241935	816.803982904311	385.403640986008	629.161692897839	727.017575411964	295.031366349692	689.028396873472	747.907601816824	197.003865507298	621.740386299736	589.185625873584	45.734749308426	581.320973949810	757.973266792616	94.387879803503	627.364665051587	666.511167395968	37.351497599098	661.439944059187	874.948366991979	39.886109492179	667.534489659036	888.696092756193	36.657721165001	436.960542844379	965.835882801580	37.026368399805	359.403562932582	1044.762670460116	102.913242665639	387.648136758446	1174.849185189255	58.553584949823	364.311983413194	665.084820095737	1102.687191260206	309.224995655905	621.800445065483	848.064462816134	360.902182684210	1130.938603081696	1181.563871810054	809.115521368986	1356.086036114903	1276.177995186982	731.636623199990	
